<svg id="material" viewBox="0 0 13 13" style="background-color:#ffffff00" version="1.1"	xmlns="http://www.w3.org/2000/svg" xmlns:xlink="http://www.w3.org/1999/xlink" xml:space="preserve"	x="0px" y="0px" width="100%" height="100%">	<g id="Layer%201">		<g id="SP_Material_Xs_N.png">			<path id="Inner%20Bevel" d="M 12 7.0015 C 12 5.9023 11.2029 5.0103 10.2148 5 C 9.9263 6.2095 9.9082 7.8501 10.2839 9 C 11.239 8.9487 12 8.0742 12 7.0015 Z" fill="#000000"/>			<path d="M 3 4 L 4 4 L 4 5 L 3 5 L 3 4 ZM 5 4 L 6 4 L 6 5 L 5 5 L 5 4 ZM 7 4 L 8 4 L 8 5 L 7 5 L 7 4 ZM 4 5 L 5 5 L 5 6 L 4 6 L 4 5 ZM 6 5 L 7 5 L 7 6 L 6 6 L 6 5 ZM 5 6 L 6 6 L 6 7 L 5 7 L 5 6 ZM 3 6 L 4 6 L 4 7 L 3 7 L 3 6 ZM 4 7 L 5 7 L 5 8 L 4 8 L 4 7 ZM 6 7 L 7 7 L 7 8 L 6 8 L 6 7 ZM 7 6 L 8 6 L 8 7 L 7 7 L 7 6 ZM 3 8 L 4 8 L 4 9 L 3 9 L 3 8 ZM 5 8 L 6 8 L 6 9 L 5 9 L 5 8 ZM 7 8 L 8 8 L 8 9 L 7 9 L 7 8 ZM 4 9 L 5 9 L 5 10 L 4 10 L 4 9 ZM 6 9 L 7 9 L 7 10 L 6 10 L 6 9 ZM 5 10 L 6 10 L 6 10.5938 L 5 10.5938 L 5 10 ZM 7 10 L 8 10 L 8 11 L 7 11 L 7 10 ZM 3.4067 0.4229 C 1.2502 4.0552 2 7.5 2.1563 8.75 C 2.4375 9.7813 2.4844 9.9219 3.1406 10.5469 C 4.3125 11.6875 8.2031 12.0156 11 12 C 7.947 11.2627 8.2092 3.8281 10 2 C 8.3794 2.75 6.812 3.3174 5 3 C 3.123 1.8984 3.7061 -0.0811 3.4067 0.4229 Z" fill="#000000"/>			<path d="M 3 4 L 4 4 L 4 5 L 3 5 L 3 4 Z" fill="#ffffff"/>			<path d="M 5 4 L 6 4 L 6 5 L 5 5 L 5 4 Z" fill="#ffffff"/>			<path d="M 7 4 L 8 4 L 8 5 L 7 5 L 7 4 Z" fill="#ffffff"/>			<path d="M 4 5 L 5 5 L 5 6 L 4 6 L 4 5 Z" fill="#ffffff"/>			<path d="M 6 5 L 7 5 L 7 6 L 6 6 L 6 5 Z" fill="#ffffff"/>			<path d="M 5 6 L 6 6 L 6 7 L 5 7 L 5 6 Z" fill="#ffffff"/>			<path d="M 3 6 L 4 6 L 4 7 L 3 7 L 3 6 Z" fill="#ffffff"/>			<path d="M 4 7 L 5 7 L 5 8 L 4 8 L 4 7 Z" fill="#ffffff"/>			<path d="M 6 7 L 7 7 L 7 8 L 6 8 L 6 7 Z" fill="#ffffff"/>			<path d="M 7 6 L 8 6 L 8 7 L 7 7 L 7 6 Z" fill="#ffffff"/>			<path d="M 3 8 L 4 8 L 4 9 L 3 9 L 3 8 Z" fill="#ffffff"/>			<path d="M 5 8 L 6 8 L 6 9 L 5 9 L 5 8 Z" fill="#ffffff"/>			<path d="M 7 8 L 8 8 L 8 9 L 7 9 L 7 8 Z" fill="#ffffff"/>			<path d="M 4 9 L 5 9 L 5 10 L 4 10 L 4 9 Z" fill="#ffffff"/>			<path d="M 6 9 L 7 9 L 7 10 L 6 10 L 6 9 Z" fill="#ffffff"/>			<path d="M 5 10.2881 L 6 10.2881 L 6 10.8818 L 5 10.8818 L 5 10.2881 Z" fill="#ffffff"/>			<path d="M 7 10 L 8 10 L 8 11 L 7 11 L 7 10 Z" fill="#ffffff"/>			<path id="13x13" d="M 0 0 L 13 0 L 13 13 L 0 13 L 0 0 ZM -1 -1 L -1 14 L 14 14 L 14 -1 L -1 -1 Z" fill="#000000"/>		</g>	</g></svg>