<svg version="1.1" id="light-2" xmlns="http://www.w3.org/2000/svg" xmlns:xlink="http://www.w3.org/1999/xlink" x="0px" y="0px"
	 viewBox="0 0 13 13" style="enable-background:new 0 0 13 13;" xml:space="preserve" width="100%" height="100%">
<style type="text/css">
	.st0{fill-rule:evenodd;clip-rule:evenodd;}
</style>
<g>
	<path class="st0" d="M5,10.5c0.1,0.6,1.4,1,1.4,1c0,0,0.2,0.5,0.5,0.5c0.3,0,0.5-0.5,0.5-0.5c0,0,1.4-0.4,1.5-1V10H5V10.5z"/>
	<path class="st0" d="M6.9,1c-2.2,0-4,1.6-4,3.6c0,0.4,0.1,0.7,0.2,1C3.2,6.3,5,8.1,5,9h4c0-0.9,1.6-3,1.8-3.4
		c0.1-0.3,0.2-0.7,0.2-1C10.9,2.6,9.1,1,6.9,1z M6.9,2c1.7,0,3,1.2,3,2.6c0,0.2,0,0.4-0.1,0.7C9.8,5.4,9.6,5.6,9.5,5.8
		C8.9,6.7,8.5,7.4,8.2,8H5.7C5.5,7.5,5.1,6.9,4.7,6.3C4.4,6,4.1,5.6,4.1,5.4l0-0.1C4,5.1,3.9,4.9,3.9,4.7C3.9,3.2,5.3,2,6.9,2z"/>
</g>
</svg>
