<?xml version="1.0" encoding="utf-8"?>
<!-- Generator: Adobe Illustrator 19.1.0, SVG Export Plug-In . SVG Version: 6.00 Build 0)  -->
<svg version="1.1" id="map"
	 xmlns="http://www.w3.org/2000/svg" xmlns:xlink="http://www.w3.org/1999/xlink" x="0px" y="0px" viewBox="0 -1 14 14"
	 style="enable-background:new 0 -1 14 14;" xml:space="preserve">
<style type="text/css">
	.st0{fill:none;}
	.st1{fill:#7F7F7F;}
</style>
<path class="st0" d="z"/>
<polygon class="st1" points="9,1.7 9,3 10.4,3 "/>
<path class="st0" d="z"/>
<path d="M8.4,0H1v12h11V3.5L8.4,0z M9,1.7L10.4,3H9V1.7z M11,11H2V1h6v3h3V11z"/>
<circle class="st1" cx="8.5" cy="9" r="1"/>
<circle class="st1" cx="4.5" cy="7.9" r="1"/>
<path class="st1" d="M8,4V1H2v10h6.5c-1.1,0-2-0.9-2-2c0-0.8,0.5-1.5,1.2-1.8L6.5,5L5.6,6.3c0.5,0.4,0.9,1,0.9,1.6c0,1.1-0.9,2-2,2
	s-2-0.9-2-2s0.9-2,2-2c0.1,0,0.1,0,0.2,0L6.5,3l2.3,4c1,0.1,1.7,1,1.7,2c0,1.1-0.9,2-2,2H11V4H8z"/>
</svg>
