<?xml version="1.0" encoding="utf-8"?>
<!-- Generator: Adobe Illustrator 19.1.0, SVG Export Plug-In . SVG Version: 6.00 Build 0)  -->
<svg version="1.1" id="map" xmlns="http://www.w3.org/2000/svg" xmlns:xlink="http://www.w3.org/1999/xlink" x="0px"
	 y="0px" viewBox="2 -3 18 18" style="enable-background:new 2 -3 18 18;" xml:space="preserve">
<style type="text/css">
	.st0{fill:url(#SVGID_1_);}
	.st1{opacity:0.349;fill:#FFFFFF;enable-background:new    ;}
	.st2{opacity:0.302;enable-background:new    ;}
</style>
<linearGradient id="SVGID_1_" gradientUnits="userSpaceOnUse" x1="4.3182" y1="12.1496" x2="4.3182" y2="10.9796" gradientTransform="matrix(11 0 0 -11 -37 134)">
	<stop  offset="0" style="stop-color:#222222;stop-opacity:0.7176"/>
	<stop  offset="1" style="stop-color:#191919;stop-opacity:0.9176"/>
</linearGradient>
<path class="st0" d="M14,9h1v1h-1V9z M12,9h1v1h-1V9z M10,9h1v1h-1V9z M8,9h1v1H8V9z M6,9h1v1H6V9z M14,7h1v1h-1V7z M12,7h1v1h-1V7z
	 M10,7h1v1h-1V7z M8,7h1v1H8V7z M6,7h1v1H6V7z M14,5h1v1h-1V5z M12,5h1v1h-1V5z M10,5h1v1h-1V5z M8,5h1v1H8V5z M6,5h1v1H6V5z M14,3
	h1v1h-1V3z M12,3h1v1h-1V3z M10,3h1v1h-1V3z M8,3h1v1H8V3z M6,3h1v1H6V3z M14,1h1v1h-1V1z M12,1h1v1h-1V1z M10,1h1v1h-1V1z M8,1h1v1
	H8V1z M6,1h1v1H6V1z M5,0v11h11V0H5z"/>
<path id="InnerShadow_D" class="st1" d="M5,11v1h11v-1H5z"/>
<path id="Shadow_D" class="st2" d="M5,0v1h11V0H5z"/>
</svg>
