<svg version="1.1" id="light-1" xmlns="http://www.w3.org/2000/svg" xmlns:xlink="http://www.w3.org/1999/xlink" x="0px" y="0px"
	 viewBox="0 0 13 13" style="enable-background:new 0 0 13 13;" xml:space="preserve">
<style type="text/css">
	.st0{fill:none;}
	.st1{fill:url(#SVGID_1_);}
	.st2{opacity:0.6;enable-background:new    ;}
</style>
<path class="st0" d="z"/>
<linearGradient id="SVGID_1_" gradientUnits="userSpaceOnUse" x1="8.914265e-02" y1="12.857" x2="1.086" y2="12.0006" gradientTransform="matrix(8.5017 0 0 -8.1828 4.3082 110.9734)">
	<stop  offset="0" style="stop-color:#FFFFFF;stop-opacity:0.6784"/>
	<stop  offset="0.2323" style="stop-color:#FFFFFF;stop-opacity:0.6784"/>
	<stop  offset="1" style="stop-color:#FFFFFF;stop-opacity:0"/>
</linearGradient>
<path class="st1" d="M4.4,8.3c0.3,0.5,1,0.9,1.7,0.6L7.9,12c0,0,0.8,0.8,1.3,0.8c1.9,0,3.6-1.1,3.6-3C12.8,9,12.5,8,12.5,8L8.4,6.2
	C8.3,5.7,8.8,4.6,6.9,4.6C5.8,4.6,3.9,6.9,4.4,8.3z"/>
<path id="Fill" d="M4.6,9.8C5,10,6.4,10.4,6.4,10.4c-0.2,0.2-2.2,0.5-3.2-0.8c-0.8-1.1-0.7-2-0.5-2.2c-0.2-0.2-2.1-2-2.1-2
	C0.2,5,0,4.3,0,4.3c0-1,1.4-2.9,2.5-3.3c0.6-0.2,3.4,1.9,3.4,1.9c2-0.8,3.6,0,4.1,1.7c-0.2,1-0.3,1.7-0.3,1.7L9.4,5.6
	c0,0-0.6-1.1-1.3-1.5C7.7,4,7,4.2,5.9,4.5C5.2,4.9,4.9,5.2,4.4,6C3.8,6.9,3.9,7.5,3.9,7.5C3.8,8.5,4.1,9.1,4.6,9.8z"/>
<path class="st2" d="M7.7,5.9c0,0,3.6,1.3,3.6,1.3C11.3,7.3,13,8,13,8v0.6L7.5,6.3L7.7,5.9z"/>
<path class="st2" d="M5.9,7.8l3,5L8.4,13L5.9,8.1V7.8z"/>
<path class="st0" d="z"/>
</svg>
