<?xml version="1.0" encoding="utf-8"?>
<!-- Generator: Adobe Illustrator 19.1.0, SVG Export Plug-In . SVG Version: 6.00 Build 0)  -->
<svg version="1.1" id="material" xmlns="http://www.w3.org/2000/svg" xmlns:xlink="http://www.w3.org/1999/xlink" x="0px" y="0px"
	 viewBox="0 779 13 13" style="enable-background:new 0 779 13 13;" xml:space="preserve">
<style type="text/css">
	.st0{fill:none;}
	.st1{fill:#FFFFFF;}
</style>
<path class="st0" d="z"/>
<path id="Inner_x25_20Bevel" d="M12.1,786.4c0-1.2-0.9-2.2-2-2.2c-0.3,1.3-0.3,3.2,0.1,4.5C11.3,788.6,12.1,787.6,12.1,786.4z"/>
<path d="M2.1,783.1h1.1v1.1H2.1V783.1z M4.3,783.1h1.1v1.1H4.3V783.1z M6.6,783.1h1.1v1.1H6.6V783.1z M3.2,784.2h1.1v1.1H3.2V784.2z
	 M5.4,784.2h1.1v1.1H5.4V784.2z M4.3,785.3h1.1v1.1H4.3V785.3z M2.1,785.3h1.1v1.1H2.1V785.3z M3.2,786.4h1.1v1.1H3.2V786.4z
	 M5.4,786.4h1.1v1.1H5.4V786.4z M6.6,785.3h1.1v1.1H6.6V785.3z M2.1,787.5h1.1v1.1H2.1V787.5z M4.3,787.5h1.1v1.1H4.3V787.5z
	 M6.6,787.5h1.1v1.1H6.6V787.5z M3.2,788.7h1.1v1.1H3.2V788.7z M5.4,788.7h1.1v1.1H5.4V788.7z M4.3,789.8h1.1v0.7H4.3V789.8z
	 M6.6,789.8h1.1v1.1H6.6V789.8z M2.6,779.1c-2.4,4-1.6,7.9-1.4,9.3c0.3,1.1,0.4,1.3,1.1,2c1.3,1.3,5.6,1.6,8.8,1.6
	c-3.4-0.8-3.1-9.1-1.1-11.1c-1.8,0.8-3.6,1.5-5.6,1.1C2.2,780.7,2.9,778.5,2.6,779.1z"/>
<path class="st1" d="M2.1,783.1h1.1v1.1H2.1V783.1z"/>
<path class="st1" d="M4.3,783.1h1.1v1.1H4.3V783.1z"/>
<path class="st1" d="M6.6,783.1h1.1v1.1H6.6V783.1z"/>
<path class="st1" d="M3.2,784.2h1.1v1.1H3.2V784.2z"/>
<path class="st1" d="M5.4,784.2h1.1v1.1H5.4V784.2z"/>
<path class="st1" d="M4.3,785.3h1.1v1.1H4.3V785.3z"/>
<path class="st1" d="M2.1,785.3h1.1v1.1H2.1V785.3z"/>
<path class="st1" d="M3.2,786.4h1.1v1.1H3.2V786.4z"/>
<path class="st1" d="M5.4,786.4h1.1v1.1H5.4V786.4z"/>
<path class="st1" d="M6.6,785.3h1.1v1.1H6.6V785.3z"/>
<path class="st1" d="M2.1,787.5h1.1v1.1H2.1V787.5z"/>
<path class="st1" d="M4.3,787.5h1.1v1.1H4.3V787.5z"/>
<path class="st1" d="M6.6,787.5h1.1v1.1H6.6V787.5z"/>
<path class="st1" d="M3.2,788.7h1.1v1.1H3.2V788.7z"/>
<path class="st1" d="M5.4,788.7h1.1v1.1H5.4V788.7z"/>
<path class="st1" d="M4.3,790.1h1.1v0.7H4.3V790.1z"/>
<path class="st1" d="M6.6,789.8h1.1v1.1H6.6V789.8z"/>
<path class="st0" d="z"/>
</svg>
