<svg version="1.1" id="light-3" xmlns="http://www.w3.org/2000/svg" xmlns:xlink="http://www.w3.org/1999/xlink" x="0px" y="0px"
	 viewBox="0 0 13 13" style="enable-background:new 0 0 13 13;" xml:space="preserve">
<style type="text/css">
	.st0{fill-rule:evenodd;clip-rule:evenodd;}
</style>
<g>
	<g>
		<path class="st0" d="M6,1.5C6,1.2,6.2,1,6.5,1S7,1.2,7,1.5v1C7,2.8,6.8,3,6.5,3S6,2.8,6,2.5V1.5z"/>
		<path class="st0" d="M6,10.5C6,10.2,6.2,10,6.5,10C6.8,10,7,10.2,7,10.5v1C7,11.8,6.8,12,6.5,12C6.2,12,6,11.8,6,11.5V10.5z"/>
		<path class="st0" d="M1,6.5C1,6.2,1.2,6,1.5,6h1C2.8,6,3,6.2,3,6.5S2.8,7,2.5,7h-1C1.2,7,1,6.8,1,6.5z"/>
		<path class="st0" d="M9.5,6.5C9.5,6.2,9.7,6,10,6h1c0.3,0,0.5,0.2,0.5,0.5S11.3,7,11,7h-1C9.7,7,9.5,6.8,9.5,6.5z"/>
		<path class="st0" d="M10.7,2.8c-0.2-0.2-0.5-0.2-0.7,0L9.3,3.5C9.1,3.7,9.1,4,9.3,4.2c0.2,0.2,0.5,0.2,0.7,0l0.7-0.7
			C10.9,3.3,10.9,3,10.7,2.8z"/>
		<path class="st0" d="M3.7,9.3C3.5,9.1,3.2,9.1,3,9.3L2.3,10c-0.2,0.2-0.2,0.5,0,0.7c0.2,0.2,0.5,0.2,0.7,0L3.7,10
			C3.9,9.8,3.9,9.5,3.7,9.3z"/>
		<path class="st0" d="M4.8,8.2c0.9,0.9,2.5,0.9,3.4,0c0.9-0.9,0.9-2.5,0-3.4c-0.9-0.9-2.5-0.9-3.4,0C3.9,5.7,3.9,7.3,4.8,8.2z"/>
		<path class="st0" d="M9.3,9.3c-0.2,0.2-0.2,0.5,0,0.7l1.7,1.8l-0.9,0.8C10,12.8,10.1,13,10.3,13h2.1c0.3,0,0.5-0.2,0.5-0.5v-2.2
			c0-0.3-0.2-0.4-0.4-0.2l-0.9,1L10,9.3C9.8,9.1,9.5,9.1,9.3,9.3z"/>
	</g>
	<path class="st0" d="M3.7,3.7C3.5,3.9,3.2,3.9,3,3.7L2.3,3c-0.2-0.2-0.2-0.5,0-0.7c0.2-0.2,0.5-0.2,0.7,0L3.7,3
		C3.9,3.2,3.9,3.5,3.7,3.7z"/>
</g>
</svg>
