<?xml version="1.0" encoding="utf-8"?>
<!-- Generator: Adobe Illustrator 19.1.0, SVG Export Plug-In . SVG Version: 6.00 Build 0)  -->
<svg version="1.1" id="map" xmlns="http://www.w3.org/2000/svg" xmlns:xlink="http://www.w3.org/1999/xlink" x="0px"
	 y="0px" viewBox="2 -3 18 18" style="enable-background:new 2 -3 18 18;" xml:space="preserve">
<style type="text/css">
	.st0{opacity:0.6;enable-background:new    ;}
	.st1{opacity:0.2;enable-background:new    ;}
</style>
<path class="st0" d="M9,7.9c0.2,2.3,2.1,4.1,4.5,4.1C16,12,18,10,18,7.5S16,3,13.5,3h-0.1c-0.1,0.3-0.2,0.7-0.3,1c0.1,0,0.3,0,0.4,0
	C15.4,4,17,5.6,17,7.5S15.4,11,13.5,11c-1.8,0-3.2-1.3-3.5-3C9.7,7.9,9.4,7.9,9,7.9z"/>
<path d="M13.8,10l-1-0.6c-2.6-1.4-6-1.4-8.5,0L3.5,9.9V9C3.5,3.2,8-0.5,15-0.5h1.3l-0.9,0.9c-1.1,1.1-2.7,5.2-1.9,8.5L13.8,10z
	 M14,0.5C9.6,0.8,5,2.9,4.5,8.2c2.4-1.1,5.3-1.1,7.8-0.1C12,5.3,12.9,2.2,14,0.5z"/>
<g id="Layer_x25_201">
</g>
<path class="st1" d="M15,0C9,0,4,3,4,9c2.7-1.5,6.3-1.5,8.9-0.1C12,5.4,13.8,1.2,15,0z M7,7H6V6h1V7z M9,7H8V6h1V7z M9,5H8V4h1V5z
	 M11,7h-1V6h1V7z M11,5h-1V4h1V5z M11,3h-1V2h1V3z"/>
</svg>
