<?xml version="1.0" encoding="utf-8"?>
<!-- Generator: Adobe Illustrator 19.1.0, SVG Export Plug-In . SVG Version: 6.00 Build 0)  -->
<svg version="1.1" id="light-1" xmlns="http://www.w3.org/2000/svg" xmlns:xlink="http://www.w3.org/1999/xlink" x="0px" y="0px"
	 viewBox="-299 390 13 13" style="enable-background:new -299 390 13 13;" xml:space="preserve">
<style type="text/css">
	.st0{fill:none;enable-background:new    ;}
	.st1{fill:url(#SVGID_1_);}
	.st2{opacity:0.6;enable-background:new    ;}
	.st3{enable-background:new    ;}
</style>
<path class="st0" d="M-299,390"/>
<linearGradient id="SVGID_1_" gradientUnits="userSpaceOnUse" x1="-562.7413" y1="827.6816" x2="-561.7445" y2="828.5381" gradientTransform="matrix(8.5017 0 0 8.1828 4490.3252 -6376.9873)">
	<stop  offset="0" style="stop-color:#FFFFFF;stop-opacity:0.6784"/>
	<stop  offset="0.2323" style="stop-color:#FFFFFF;stop-opacity:0.6784"/>
	<stop  offset="1" style="stop-color:#FFFFFF;stop-opacity:0"/>
</linearGradient>
<path class="st1" d="M-294.6,398.3c0.3,0.5,1,0.9,1.7,0.6l1.8,3.1c0,0,0.8,0.8,1.3,0.8c1.9,0,3.6-1.1,3.6-3c0-0.8-0.3-1.8-0.3-1.8
	l-4.1-1.8c-0.1-0.5,0.4-1.6-1.5-1.6C-293.2,394.6-295.1,396.9-294.6,398.3z"/>
<path id="Fill" d="M-294.4,399.8c0.4,0.2,1.8,0.6,1.8,0.6c-0.2,0.2-2.2,0.5-3.2-0.8c-0.8-1.1-0.7-2-0.5-2.2c-0.2-0.2-2.1-2-2.1-2
	c-0.4-0.4-0.6-1.1-0.6-1.1c0-1,1.4-2.9,2.5-3.3c0.6-0.2,3.4,1.9,3.4,1.9c2-0.8,3.6,0,4.1,1.7c-0.2,1-0.3,1.7-0.3,1.7l-0.3-0.7
	c0,0-0.6-1.1-1.3-1.5c-0.4-0.1-1.1,0.1-2.2,0.4c-0.7,0.4-1,0.7-1.5,1.5c-0.6,0.9-0.5,1.5-0.5,1.5
	C-295.2,398.5-294.9,399.1-294.4,399.8z"/>
<path class="st2" d="M-291.3,395.9l3.6,1.3c0,0.1,1.7,0.8,1.7,0.8v0.6l-5.5-2.3L-291.3,395.9z"/>
<path class="st2" d="M-293.1,397.8l3,5l-0.5,0.2l-2.5-4.9V397.8z"/>
<path class="st3" d="M-299,390"/>
</svg>
